<?xml version="1.0" encoding="UTF-8" standalone="no"?>
<!-- Created with Inkscape (http://www.inkscape.org/) -->

<svg
   xmlns:dc="http://purl.org/dc/elements/1.1/"
   xmlns:cc="http://creativecommons.org/ns#"
   xmlns:rdf="http://www.w3.org/1999/02/22-rdf-syntax-ns#"
   xmlns:svg="http://www.w3.org/2000/svg"
   xmlns="http://www.w3.org/2000/svg"
   xmlns:sodipodi="http://sodipodi.sourceforge.net/DTD/sodipodi-0.dtd"
   xmlns:inkscape="http://www.inkscape.org/namespaces/inkscape"
   width="158.03749"
   height="147.45966"
   id="svg2"
   version="1.1"
   inkscape:version="0.48.4 r9939"
   sodipodi:docname="New document 1">
  <defs
     id="defs4">
    <inkscape:path-effect
       effect="skeletal"
       id="path-effect3137"
       is_visible="true"
       pattern="M 0,5 C 0,2.24 2.24,0 5,0 7.76,0 10,2.24 10,5 10,7.76 7.76,10 5,10 2.24,10 0,7.76 0,5 z"
       copytype="single_stretched"
       prop_scale="1"
       scale_y_rel="false"
       spacing="0"
       normal_offset="0"
       tang_offset="0"
       prop_units="false"
       vertical_pattern="false"
       fuse_tolerance="0" />
    <inkscape:path-effect
       effect="spiro"
       id="path-effect3135"
       is_visible="true" />
    <inkscape:path-effect
       effect="skeletal"
       id="path-effect3131"
       is_visible="true"
       pattern="M 0,5 C 0,2.24 2.24,0 5,0 7.76,0 10,2.24 10,5 10,7.76 7.76,10 5,10 2.24,10 0,7.76 0,5 z"
       copytype="single_stretched"
       prop_scale="1"
       scale_y_rel="false"
       spacing="0"
       normal_offset="0"
       tang_offset="0"
       prop_units="false"
       vertical_pattern="false"
       fuse_tolerance="0" />
    <inkscape:path-effect
       effect="spiro"
       id="path-effect3129"
       is_visible="true" />
    <inkscape:path-effect
       effect="skeletal"
       id="path-effect3123"
       is_visible="true"
       pattern="M 0,5 C 0,2.24 2.24,0 5,0 7.76,0 10,2.24 10,5 10,7.76 7.76,10 5,10 2.24,10 0,7.76 0,5 z"
       copytype="single_stretched"
       prop_scale="1"
       scale_y_rel="false"
       spacing="0"
       normal_offset="0"
       tang_offset="0"
       prop_units="false"
       vertical_pattern="false"
       fuse_tolerance="0" />
    <inkscape:path-effect
       effect="spiro"
       id="path-effect3121"
       is_visible="true" />
    <inkscape:path-effect
       effect="skeletal"
       id="path-effect3067"
       is_visible="true"
       pattern="M 0,5 C 0,2.24 2.24,0 5,0 7.76,0 10,2.24 10,5 10,7.76 7.76,10 5,10 2.24,10 0,7.76 0,5 z"
       copytype="single_stretched"
       prop_scale="1"
       scale_y_rel="false"
       spacing="0"
       normal_offset="0"
       tang_offset="0"
       prop_units="false"
       vertical_pattern="false"
       fuse_tolerance="0" />
    <inkscape:path-effect
       effect="spiro"
       id="path-effect3065"
       is_visible="true" />
  </defs>
  <sodipodi:namedview
     id="base"
     pagecolor="#ffffff"
     bordercolor="#666666"
     borderopacity="1.0"
     inkscape:pageopacity="0.0"
     inkscape:pageshadow="2"
     inkscape:zoom="1.4"
     inkscape:cx="-133.08711"
     inkscape:cy="140.67609"
     inkscape:document-units="px"
     inkscape:current-layer="layer1"
     showgrid="false"
     fit-margin-top="0"
     fit-margin-left="0"
     fit-margin-right="0"
     fit-margin-bottom="0"
     inkscape:window-width="1920"
     inkscape:window-height="1006"
     inkscape:window-x="0"
     inkscape:window-y="25"
     inkscape:window-maximized="1" />
  <metadata
     id="metadata7">
    <rdf:RDF>
      <cc:Work
         rdf:about="">
        <dc:format>image/svg+xml</dc:format>
        <dc:type
           rdf:resource="http://purl.org/dc/dcmitype/StillImage" />
        <dc:title></dc:title>
      </cc:Work>
    </rdf:RDF>
  </metadata>
  <g
     inkscape:label="Layer 1"
     inkscape:groupmode="layer"
     id="layer1"
     transform="translate(-267.5831,-418.53913)">
    <path
       style="fill:#00ffff"
       d="m 332.5283,553.93862 c -15.0875,-2.3505 -27.76707,-8.63841 -38.71913,-19.20117 -10.64902,-10.27051 -17.26432,-22.20319 -20.38075,-36.76285 -1.3991,-6.53635 -1.65679,-19.18448 -0.51944,-25.49473 4.03956,-22.4124 17.7562,-37.1194 39.19438,-46.18464 4.47326,-1.56715 10.38152,-7.01313 13.73864,-3.66176 0.21903,0.12024 2.97074,-0.21125 6.1149,-0.73667 18.2994,-3.05796 33.32172,-0.96314 48.28732,6.73352 15.47314,7.9577 27.27074,21.92595 32.74166,38.76586 2.37209,7.30148 3.12228,12.9532 2.76021,20.79458 -0.762,16.50283 -7.1568,31.31573 -18.79747,43.54241 -14.14925,14.86155 -33.47078,23.10709 -53.81826,22.96717 -3.28708,-0.0226 -8.058,-0.36538 -10.60206,-0.76172 z m 13.66066,-22.9763 c 20.98196,-18.78815 32.8004,-33.19928 32.8004,-39.99607 0,-4.20597 -2.89798,-5.06125 -8.01325,-2.36495 -5.36963,2.83038 -10.07738,6.99223 -17.4026,15.38461 -2.16415,2.47942 -2.25767,2.52918 -1.95764,1.04153 0.17331,-0.85926 0.47132,-5.78046 0.66228,-10.93598 0.75028,-20.25667 -2.46547,-41.29337 -7.53727,-49.30717 -2.56986,-4.06056 -4.9099,-4.60758 -7.57898,-1.77173 -4.99015,5.30194 -8.0044,23.43172 -7.36682,44.309 0.17495,5.72837 0.45306,11.46975 0.61806,12.75864 l 0.29997,2.34343 -1.44943,-1.82266 c -10.03047,-12.61324 -21.06881,-18.74183 -22.26343,-12.36089 -0.87212,4.65834 4.6575,14.20002 15.6136,26.9422 4.48265,5.2134 18.34416,19.78892 18.81954,19.78892 0.15322,0 2.29323,-1.80401 4.75557,-4.00888 z"
       id="path3145"
       inkscape:connector-curvature="0"
       sodipodi:nodetypes="ssssccssssssscssssssssscsssscc" />
    <path
       style="fill:#000000;fill-rule:evenodd;stroke:none"
       d="m 349.28571,420.75504 c -0.0395,0.2746 -1.14517,0.36696 -3.21319,0.43635 -2.06802,0.0694 -5.10591,0.12299 -8.98898,0.53227 -3.88308,0.40929 -8.62197,1.18115 -13.93152,2.79291 -5.30955,1.61176 -11.20028,4.06938 -17.06514,7.85935 -5.30901,3.42518 -10.59789,7.96532 -15.2731,13.68613 -4.67522,5.72081 -8.73845,12.62652 -11.36621,20.48031 -2.81368,8.33772 -3.9262,17.78428 -2.91943,27.52277 1.00676,9.73848 4.13354,19.76786 9.63075,28.73929 3.10455,5.06952 6.94572,9.83741 11.42303,14.09065 4.47732,4.25323 9.59055,7.99156 15.19833,10.9744 10.59756,5.63294 23.07364,8.61409 35.64141,8.06757 1.31248,-0.0214 2.62759,-0.0833 3.94317,-0.18533 10.17521,-0.78874 20.04309,-3.94042 28.72297,-8.73221 10.25185,-5.6915 18.88614,-13.71192 24.88041,-22.95456 4.19836,-6.47715 7.2062,-13.56246 8.95061,-20.7048 1.74441,-7.14234 2.2252,-14.34108 1.45837,-21.18187 -0.95595,-8.914 -4.02722,-17.20695 -8.23531,-24.32885 -4.20809,-7.1219 -9.55324,-13.07457 -15.29308,-17.67836 -4.93999,-3.96051 -10.17422,-6.98364 -15.30748,-9.22009 -5.13326,-2.23646 -10.16751,-3.68786 -14.85607,-4.5643 -5.25718,-0.98409 -10.08701,-1.25519 -14.29589,-1.18849 -4.20888,0.0667 -7.80222,0.46984 -10.71147,0.90086 -2.90925,0.43103 -5.13956,0.8882 -6.66719,1.15279 -1.52764,0.2646 -2.3563,0.33435 -2.43927,0.11035 -0.083,-0.224 0.58305,-0.73519 1.99603,-1.44626 1.41298,-0.71106 3.57662,-1.62048 6.50492,-2.5046 2.9283,-0.88411 6.62644,-1.7415 11.05662,-2.23417 4.43018,-0.49268 9.59786,-0.61922 15.33274,0.0514 5.11421,0.59925 10.66617,1.83883 16.39407,3.97997 5.7279,2.14113 11.63354,5.1858 17.29539,9.34477 6.60576,4.85116 12.82461,11.26156 17.80088,19.12113 4.97628,7.85958 8.70901,17.17102 10.09929,27.44308 1.03287,7.87609 0.66847,16.1394 -1.16173,24.33354 -1.8302,8.19413 -5.12637,16.31826 -9.85786,23.77982 -6.77532,10.68957 -16.4839,19.91898 -28.11472,26.44106 -9.79237,5.5183 -20.97967,9.12352 -32.66153,10.03979 -1.51039,0.11846 -3.0226,0.19147 -4.53435,0.21846 -14.39361,0.60835 -28.54006,-2.85449 -40.59659,-9.40117 -6.3995,-3.47268 -12.18636,-7.78886 -17.224,-12.68767 -5.03764,-4.89881 -9.32591,-10.3799 -12.77376,-16.2071 -6.13736,-10.37699 -9.44707,-21.77751 -10.31121,-32.78334 -0.86414,-11.00584 0.71457,-21.61553 4.16539,-30.95462 3.26146,-8.76407 8.07658,-16.28047 13.51686,-22.38247 5.44028,-6.102 11.50646,-10.79457 17.52157,-14.21334 6.65061,-3.774 13.17973,-5.99092 18.97567,-7.25362 5.79594,-1.26271 10.86918,-1.5777 14.95826,-1.49552 4.08908,0.0822 7.20482,0.55503 9.27354,1.01821 2.06871,0.46317 3.09833,0.9109 3.0588,1.1855 z"
       id="path3119"
       inkscape:path-effect="#path-effect3121;#path-effect3123"
       inkscape:original-d="m 349.28571,420.75504 c -20.47324,3.86884 -60.04674,27.81852 -73.57142,44.46428 -10.81016,13.30481 -3.90208,46.38412 6.42857,60.00001 23.60906,31.11694 25.19254,26.42857 66.42856,35.71428 20.6212,1.65395 51.93737,-17.63238 61.42858,-34.28571 6.8851,-12.62267 13.95486,-29.87734 10.71428,-45.00001 -1.89005,-8.82026 -18.65085,-38.63496 -25.71428,-44.28571 -20.77111,-16.61688 -41.14282,-10 -66.42857,-10"
       inkscape:connector-curvature="0"
       sodipodi:nodetypes="cssccssc" />
    <g
       id="g3139"
       transform="matrix(2.176977,0,0,2.176977,-403.64084,-588.60696)">
      <path
         inkscape:connector-curvature="0"
         inkscape:original-d="m 342.85714,475.21925 c 0.86094,13.55902 0.77235,25.35753 0.77235,39.0739"
         inkscape:path-effect="#path-effect3129;#path-effect3131"
         id="path3127"
         d="m 342.85714,475.21925 c 2.75946,-0.0545 5.17203,8.65374 5.3852,19.43814 0.21317,10.78439 -1.85339,19.58122 -4.61285,19.63576 -2.75946,0.0545 -5.17203,-8.65374 -5.3852,-19.43814 -0.21317,-10.78439 1.85339,-19.58122 4.61285,-19.63576 z"
         style="fill:#000000;fill-rule:evenodd;stroke:none"
         sodipodi:nodetypes="cc" />
      <path
         inkscape:connector-curvature="0"
         inkscape:original-d="m 328.57143,495.21932 c 4.03849,8.16993 12.32487,12.835 15,18.18526 6.59895,-4.7056 10.02588,-14.37561 16.2166,-17.47097"
         inkscape:path-effect="#path-effect3135;#path-effect3137"
         id="path3133"
         d="m 328.57143,495.21932 c 0.5305,-0.43758 1.45005,-0.34618 2.55994,0.19096 1.1099,0.53714 2.40927,1.51999 3.77556,2.86754 1.3663,1.34755 2.79952,3.0598 4.25979,5.05816 1.46027,1.99836 2.94844,4.28285 4.50097,6.77711 0.023,-0.0324 0.0459,-0.0649 0.0689,-0.0974 1.70937,-2.41275 3.34169,-4.61951 4.92849,-6.54114 1.5868,-1.92163 3.12895,-3.55812 4.5816,-4.83255 1.45266,-1.27443 2.81581,-2.18681 3.96176,-2.66266 1.14595,-0.47585 2.07383,-0.51519 2.57955,-0.0458 0.50572,0.46941 0.5305,1.40303 0.0436,2.68633 -0.48689,1.28329 -1.48632,2.91625 -2.95263,4.78656 -1.46631,1.87031 -3.39949,3.97798 -5.67104,6.21314 -2.27155,2.23517 -4.88059,4.59784 -7.62223,6.9804 -0.0369,0.032 -0.0737,0.0641 -0.11056,0.096 -2.59135,-2.52958 -5.05012,-5.03016 -7.17933,-7.38351 -2.12921,-2.35335 -3.92801,-4.55943 -5.27574,-6.50224 -1.34773,-1.9428 -2.2444,-3.62232 -2.65205,-4.92497 -0.40764,-1.30265 -0.32712,-2.22845 0.20338,-2.66603 z"
         style="fill:#000000;fill-rule:evenodd;stroke:none"
         sodipodi:nodetypes="ccc" />
    </g>
  </g>
</svg>
